PathFileType	4	(X/Y/Z)	Walk10.trc
DataRate	CameraRate	NumFrames	NumMarkers	Units	OrigDataRate	OrigDataStartFrame	OrigNumFrames
200.000000	200.000000	4	59	mm	200.000000	431	470
Frame#	Times		RCAR		LElbow		LFA1		LWRU		LTH3		LLFC		LTB1		LTB3		RTH2		LCAR		LTH2		LMT5		LMT1		LToe		LASI		LBHD		LUA1		C7		RFA1		RWRU		RPSI		T10		LTH4		LPSI		LACR1		LLMAL		RBHD		RUA1		LElbowM		LFHD		RElbow		LTB2		LWRR		RACR1		RFHD		RToe		RElbowM		RTB2		RLFC		RCAL		RMT5		RLMAL		LMFC		RTB1		RTH3		STRN		RTB4		RASI		RTB3		RMT1		RMFC		LTB4		RTH4		LTH1		LCAL		LMMAL		RMMAL		RTH1		RWRR
			X1	Y1	Z1	X2	Y2	Z2	X3	Y3	Z3	X4	Y4	Z4	X5	Y5	Z5	X6	Y6	Z6	X7	Y7	Z7	X8	Y8	Z8	X9	Y9	Z9	X10	Y10	Z10	X11	Y11	Z11	X12	Y12	Z12	X13	Y13	Z13	X14	Y14	Z14	X15	Y15	Z15	X16	Y16	Z16	X17	Y17	Z17	X18	Y18	Z18	X19	Y19	Z19	X20	Y20	Z20	X21	Y21	Z21	X22	Y22	Z22	X23	Y23	Z23	X24	Y24	Z24	X25	Y25	Z25	X26	Y26	Z26	X27	Y27	Z27	X28	Y28	Z28	X29	Y29	Z29	X30	Y30	Z30	X31	Y31	Z31	X32	Y32	Z32	X33	Y33	Z33	X34	Y34	Z34	X35	Y35	Z35	X36	Y36	Z36	X37	Y37	Z37	X38	Y38	Z38	X39	Y39	Z39	X40	Y40	Z40	X41	Y41	Z41	X42	Y42	Z42	X43	Y43	Z43	X44	Y44	Z44	X45	Y45	Z45	X46	Y46	Z46	X47	Y47	Z47	X48	Y48	Z48	X49	Y49	Z49	X50	Y50	Z50	X51	Y51	Z51	X52	Y52	Z52	X53	Y53	Z53	X54	Y54	Z54	X55	Y55	Z55	X56	Y56	Z56	X57	Y57	Z57	X58	Y58	Z58	X59	Y59	Z59

431	2.155	1209.5	880.33	453.67	947.52	1151.7	-133.85	964.78	1000.6	-142.18	993.84	870.72	-131.66	1135.5	627.8	-5.6621	1148.1	532.72	4.8075	1151.2	391.61	71.383	1048	237.25	72.729	1100.1	707.39	293.77	1062.6	826.62	-141.16	1172.1	740.08	4.1487	1007	58.339	-0.73741	1060.3	51.892	72.508	1102.1	41.749	48.825	993.79	1048.6	29.093	1039	1664.7	76.456	984.54	1304.6	-114.44	973.69	1522	148.06	1078.7	1011.3	471.67	1142.4	891.32	460.2	866.12	1033.8	203.21	860.9	1297.6	152.54	1108	715.26	-20.292	861.82	1026.5	124.43	1037.3	1476.8	-20.981	941.83	145.98	35.359	1039.2	1664.5	218.51	1038.8	1306.8	408.05	917.35	1145.1	-62.742	1220.5	1649.1	120.35	1017.7	1153.8	458.52	1074.9	335.15	4.834	1062.5	877.83	-81.799	896.94	1433.8	285.37	1219.3	1647.6	197	1140.2	32.084	198.58	979.55	1131.7	386.75	1005.1	270.75	257.62	1015.5	493.87	288.91	888.53	36.685	159.82	1032.7	27.181	250.68	943.05	70.306	212.05	1176	542.91	130.93	1051.9	368.28	207.92	1026.9	612.78	306.08	1142.7	1258.5	141.19	1030.3	278.57	192.9	1077.9	1049.8	300.5	1007.7	189.22	180.03	1086.4	40.092	173.57	1023.3	516.62	159.25	1102.2	317.41	73.006	1033.4	704.75	325.46	1081.5	804.53	-29.693	876.81	125.55	87.425	983.11	149.2	113.86	981.54	96.312	133.21	1033.3	799.76	339.03	1187.9	914.84	400.16
432	2.16	1220.5	883.43	452.61	951.22	1152.1	-133.43	967.62	1000.9	-141.73	996.07	870.83	-131.19	1143.5	629.09	-4.7987	1156.8	533.91	5.6488	1162.5	392.62	72.485	1064.1	235.31	73.587	1103.4	706.71	293.73	1064.5	826.32	-140.82	1179.3	741.67	4.7377	1028.8	55.273	0.033928	1082.1	50.45	73.402	1124.2	41.501	49.811	995.03	1049.7	30.307	1044.8	1664.8	76.602	989.05	1304.7	-114.21	979.5	1522.1	148.24	1088	1012.4	471.7	1153.4	893.42	459.41	871.56	1034.1	203.18	866.63	1297.8	152.65	1115.4	716.32	-19.801	867.4	1026.8	124.37	1043.1	1476.8	-20.848	960.92	140.85	35.883	1044.9	1664.7	218.65	1045.4	1307.4	408.49	921.22	1145.7	-62.24	1226.2	1649.3	120.66	1025.2	1154.4	459.3	1088.4	333.85	5.5684	1064.7	877.46	-80.751	902.78	1434	285.69	1225	1647.8	197.3	1140.3	32.061	198.63	986.96	1132	387.58	1005.7	270.68	257.62	1016.9	493.85	288.92	888.51	36.771	159.8	1032.7	27.18	250.67	943.07	70.392	212.01	1184.1	544.52	131.64	1052.8	368.08	207.94	1029.3	612.75	306.11	1148.5	1258.6	141.68	1030.9	278.38	192.91	1082.9	1050	301.33	1008	189.11	180.04	1086.4	40.074	173.6	1024.7	516.64	159.28	1115.7	316.94	74.045	1036.6	704.67	325.45	1088.2	805.34	-29.438	896.35	118.49	87.807	1001.8	145.44	114.5	981.6	96.156	133.25	1037.4	799.67	339.05	1198.2	917.79	399.3
433	2.165	1231.5	886.53	451.55	954.95	1152.4	-133.03	970.5	1001.1	-141.3	998.35	870.92	-130.7	1151.4	630.28	-3.9175	1165.2	535	6.487	1173.6	393.59	73.591	1080.2	233.4	74.453	1106.6	706.02	293.68	1066.4	826.03	-140.51	1186.3	743.14	5.3406	1050.8	52.349	0.84959	1103.9	49.172	74.362	1146.4	41.445	50.88	996.39	1050.7	31.455	1050.6	1664.8	76.746	993.58	1304.9	-113.99	985.33	1522.2	148.42	1097.3	1013.6	471.73	1164.3	895.51	458.61	877	1034.3	203.15	872.38	1297.9	152.74	1122.8	717.29	-19.3	872.99	1027	124.31	1048.9	1476.8	-20.716	980.24	135.77	36.403	1050.6	1664.8	218.79	1051.9	1308	408.94	925.11	1146.2	-61.745	1232	1649.4	120.95	1032.7	1155	460.09	1102	332.52	6.3	1066.9	877.11	-79.724	908.62	1434.1	285.99	1230.8	1647.9	197.6	1140.3	32.035	198.68	994.33	1132.2	388.41	1006.3	270.61	257.62	1018.2	493.82	288.93	888.51	36.842	159.77	1032.7	27.175	250.67	943.08	70.482	211.96	1191.9	546	132.34	1053.7	367.88	207.96	1031.7	612.7	306.15	1154.2	1258.6	142.17	1031.6	278.18	192.91	1087.9	1050.2	302.17	1008.4	189	180.04	1086.4	40.05	173.62	1026.2	516.68	159.32	1129.1	316.47	75.086	1039.8	704.56	325.44	1094.8	806.07	-29.179	916.18	111.49	88.169	1020.7	141.76	115.14	981.63	95.99	133.29	1041.5	799.56	339.05	1208.5	920.74	398.45
434	2.17	1242.4	889.63	450.49	958.69	1152.7	-132.64	973.41	1001.4	-140.86	1000.7	870.99	-130.18	1159	631.38	-3.0233	1173.4	535.97	7.317	1184.6	394.53	74.696	1096.3	231.53	75.322	1109.9	705.31	293.63	1068.4	825.75	-140.2	1193.2	744.48	5.9577	1073	49.597	1.7158	1126	48.084	75.396	1168.6	41.604	52.045	997.89	1051.7	32.531	1056.4	1664.7	76.889	998.13	1305	-113.76	991.17	1522.2	148.6	1106.6	1014.7	471.76	1175.1	897.61	457.8	882.44	1034.5	203.12	878.13	1297.9	152.8	1129.9	718.17	-18.792	878.58	1027.2	124.24	1054.8	1476.8	-20.586	999.79	130.76	36.917	1056.3	1664.9	218.92	1058.4	1308.6	409.4	929.02	1146.7	-61.256	1237.8	1649.4	121.23	1040.1	1155.5	460.88	1115.4	331.17	7.0263	1069.2	876.78	-78.734	914.46	1434.2	286.26	1236.5	1648	197.88	1140.3	32.006	198.73	1001.7	1132.4	389.24	1006.9	270.54	257.62	1019.6	493.79	288.95	888.53	36.902	159.73	1032.6	27.165	250.66	943.1	70.577	211.91	1199.3	547.34	133.01	1054.6	367.67	207.99	1034.1	612.65	306.18	1160	1258.6	142.67	1032.2	277.96	192.93	1092.8	1050.4	303	1008.8	188.88	180.05	1086.4	40.019	173.66	1027.6	516.73	159.39	1142.5	316.01	76.121	1043.1	704.43	325.42	1101.3	806.72	-28.917	936.29	104.58	88.503	1039.8	138.18	115.78	981.63	95.827	133.34	1045.6	799.42	339.05	1218.6	923.69	397.61
